<?xml version="1.0" encoding="UTF-8" standalone="no"?>
<!-- Created with Inkscape (http://www.inkscape.org/) -->

<svg
   xmlns:dc="http://purl.org/dc/elements/1.1/"
   xmlns:cc="http://creativecommons.org/ns#"
   xmlns:rdf="http://www.w3.org/1999/02/22-rdf-syntax-ns#"
   xmlns:svg="http://www.w3.org/2000/svg"
   xmlns="http://www.w3.org/2000/svg"
   xmlns:xlink="http://www.w3.org/1999/xlink"
   xmlns:sodipodi="http://sodipodi.sourceforge.net/DTD/sodipodi-0.dtd"
   xmlns:inkscape="http://www.inkscape.org/namespaces/inkscape"
   width="20.367519mm"
   height="20.367519mm"
   viewBox="0 0 20.367519 20.367519"
   version="1.1"
   id="svg8"
   inkscape:version="0.92.2 5c3e80d, 2017-08-06"
   sodipodi:docname="melange.svg">
  <defs
     id="defs2">
    <linearGradient
       inkscape:collect="always"
       id="linearGradient8875">
      <stop
         style="stop-color:#ffffff;stop-opacity:1;"
         offset="0"
         id="stop8871" />
      <stop
         style="stop-color:#f4f4f4;stop-opacity:1"
         offset="1"
         id="stop8873" />
    </linearGradient>
    <linearGradient
       inkscape:collect="always"
       id="linearGradient8446">
      <stop
         style="stop-color:#0dbc41;stop-opacity:1"
         offset="0"
         id="stop8442" />
      <stop
         style="stop-color:#0ecb47;stop-opacity:1"
         offset="1"
         id="stop8444" />
    </linearGradient>
    <linearGradient
       inkscape:collect="always"
       xlink:href="#linearGradient8446"
       id="linearGradient8448"
       x1="33.818218"
       y1="141.61186"
       x2="33.818218"
       y2="125.65434"
       gradientUnits="userSpaceOnUse"
       gradientTransform="matrix(0.9595939,0,0,0.9595939,23.79656,3.9130474)" />
    <filter
       inkscape:collect="always"
       style="color-interpolation-filters:sRGB"
       id="filter8732"
       x="-0.0348"
       width="1.0696"
       y="-0.0348"
       height="1.0696">
      <feGaussianBlur
         inkscape:collect="always"
         stdDeviation="0.27212903"
         id="feGaussianBlur8734" />
    </filter>
    <linearGradient
       inkscape:collect="always"
       xlink:href="#linearGradient8875"
       id="linearGradient8877"
       x1="55.643944"
       y1="128.87114"
       x2="55.643944"
       y2="135.51694"
       gradientUnits="userSpaceOnUse" />
  </defs>
  <sodipodi:namedview
     id="base"
     pagecolor="#ffffff"
     bordercolor="#666666"
     borderopacity="1.0"
     inkscape:pageopacity="0.0"
     inkscape:pageshadow="2"
     inkscape:zoom="5.6568543"
     inkscape:cx="17.023856"
     inkscape:cy="58.395917"
     inkscape:document-units="mm"
     inkscape:current-layer="layer1"
     showgrid="false"
     inkscape:window-width="1920"
     inkscape:window-height="1034"
     inkscape:window-x="0"
     inkscape:window-y="46"
     inkscape:window-maximized="0"
     fit-margin-top="0.8"
     fit-margin-left="0.8"
     fit-margin-right="0.8"
     fit-margin-bottom="0.8"
     inkscape:lockguides="true"
     showguides="false" />
  <metadata
     id="metadata5">
    <rdf:RDF>
      <cc:Work
         rdf:about="">
        <dc:format>image/svg+xml</dc:format>
        <dc:type
           rdf:resource="http://purl.org/dc/dcmitype/StillImage" />
        <dc:title></dc:title>
      </cc:Work>
    </rdf:RDF>
  </metadata>
  <g
     inkscape:label="Layer 1"
     inkscape:groupmode="layer"
     id="layer1"
     transform="translate(-45.755491,-122.06116)">
    <path
       style="opacity:1;fill:#000000;fill-opacity:0.17031633;stroke:none;stroke-width:0.53223443;stroke-linecap:round;stroke-linejoin:miter;stroke-miterlimit:4;stroke-dasharray:none;stroke-dashoffset:0;stroke-opacity:1;filter:url(#filter8732)"
       d="m 65.32301,132.49335 c 0,5.18251 -4.201252,9.38376 -9.383759,9.38376 -2.591254,0 -9.383773,-0.005 -9.383773,-0.005 0,0 1.8e-5,-6.78735 1.8e-5,-9.3786 0,-5.18251 4.201252,-9.38376 9.38376,-9.38376 5.182507,0 9.383759,4.20125 9.383759,9.38376 z"
       id="circle3946"
       inkscape:connector-curvature="0"
       sodipodi:nodetypes="cscsssc" />
    <g
       id="g8800">
      <path
         sodipodi:nodetypes="sscsss"
         inkscape:connector-curvature="0"
         id="circle8490"
         d="m 65.32301,132.24492 c 0,5.18251 -4.201252,9.38376 -9.383759,9.38376 -2.591254,0 -9.375781,-8.7e-4 -9.375781,-8.7e-4 0,0 -0.008,-6.79164 -0.008,-9.38289 0,-5.18251 4.201252,-9.38376 9.38376,-9.38376 5.182507,0 9.383759,4.20125 9.383759,9.38376 z"
         style="opacity:1;fill:#ffffff;fill-opacity:1;stroke:none;stroke-width:0.53223443;stroke-linecap:round;stroke-linejoin:miter;stroke-miterlimit:4;stroke-dasharray:none;stroke-dashoffset:0;stroke-opacity:1" />
      <path
         sodipodi:nodetypes="sscsss"
         inkscape:connector-curvature="0"
         id="path3944"
         d="m 63.806344,132.24492 c -1e-6,4.34487 -3.522219,7.86709 -7.867093,7.86709 -2.172437,0 -7.857463,-1e-5 -7.857463,-1e-5 0,0 -0.0096,-5.69464 -0.0096,-7.86708 -1e-6,-4.34487 3.522219,-7.86709 7.867093,-7.86709 4.344874,0 7.867092,3.52222 7.867093,7.86709 z"
         style="opacity:1;fill:url(#linearGradient8448);fill-opacity:1;stroke:none;stroke-width:0.44621113;stroke-linecap:round;stroke-linejoin:miter;stroke-miterlimit:4;stroke-dasharray:none;stroke-dashoffset:0;stroke-opacity:1" />
    </g>
    <path
       style="opacity:1;fill:url(#linearGradient8877);fill-opacity:1;stroke:none;stroke-width:0.12721319;stroke-linecap:round;stroke-linejoin:miter;stroke-miterlimit:4;stroke-dasharray:none;stroke-dashoffset:0;stroke-opacity:1"
       d="m 53.739185,128.85892 a 2.6775165,2.6775165 0 0 0 -2.675586,2.64009 h -0.0039 v 4.0811 h 1.460728 v -3.80172 h 0.002 c 0.0092,-0.74565 0.550898,-1.34455 1.216176,-1.34502 0.672226,-1e-5 1.216842,0.61122 1.216831,1.36476 -1.24e-4,0.0408 -0.0018,0.0817 -0.0052,0.12225 v 3.65971 h 0.148568 1.306239 0.15449 v -3.80171 h 0.002 c 0.0092,-0.74565 0.550899,-1.34454 1.216176,-1.34502 0.672227,-1e-5 1.216842,0.61123 1.216831,1.36476 -1.24e-4,0.0408 -0.0018,0.0817 -0.0052,0.12225 v 3.65971 h 1.454806 v -3.80367 a 2.6775165,2.6775165 0 0 0 0.01183,-0.23995 2.6775165,2.6775165 0 0 0 -2.677561,-2.67757 2.6775165,2.6775165 0 0 0 -2.017538,0.9243 2.6775165,2.6775165 0 0 0 -2.021482,-0.9243 z"
       id="circle8834"
       inkscape:connector-curvature="0" />
  </g>
</svg>
