<?xml version="1.0" encoding="UTF-8" standalone="no"?>
<!-- Created with Inkscape (http://www.inkscape.org/) -->

<svg
   xmlns:dc="http://purl.org/dc/elements/1.1/"
   xmlns:cc="http://creativecommons.org/ns#"
   xmlns:rdf="http://www.w3.org/1999/02/22-rdf-syntax-ns#"
   xmlns:svg="http://www.w3.org/2000/svg"
   xmlns="http://www.w3.org/2000/svg"
   xmlns:xlink="http://www.w3.org/1999/xlink"
   xmlns:sodipodi="http://sodipodi.sourceforge.net/DTD/sodipodi-0.dtd"
   xmlns:inkscape="http://www.inkscape.org/namespaces/inkscape"
   width="20.298971mm"
   height="20.298948mm"
   viewBox="0 0 20.298971 20.298948"
   version="1.1"
   id="svg8"
   inkscape:version="0.92.2 5c3e80d, 2017-08-06"
   sodipodi:docname="melange.svg">
  <defs
     id="defs2">
    <linearGradient
       inkscape:collect="always"
       id="linearGradient1041">
      <stop
         style="stop-color:#069884;stop-opacity:1"
         offset="0"
         id="stop1037" />
      <stop
         style="stop-color:#11c3a4;stop-opacity:1"
         offset="1"
         id="stop1039" />
    </linearGradient>
    <filter
       inkscape:collect="always"
       style="color-interpolation-filters:sRGB"
       id="filter1007"
       x="-0.040799979"
       width="1.0816"
       y="-0.040800024"
       height="1.0816">
      <feGaussianBlur
         inkscape:collect="always"
         stdDeviation="0.31904801"
         id="feGaussianBlur1009" />
    </filter>
    <linearGradient
       inkscape:collect="always"
       xlink:href="#linearGradient1041"
       id="linearGradient1043"
       x1="52.570107"
       y1="139.32251"
       x2="57.654812"
       y2="125.69649"
       gradientUnits="userSpaceOnUse"
       gradientTransform="translate(0.09354434,-0.09354434)" />
  </defs>
  <sodipodi:namedview
     id="base"
     pagecolor="#ffffff"
     bordercolor="#666666"
     borderopacity="1.0"
     inkscape:pageopacity="0.0"
     inkscape:pageshadow="2"
     inkscape:zoom="4"
     inkscape:cx="26.087861"
     inkscape:cy="-0.52845997"
     inkscape:document-units="mm"
     inkscape:current-layer="layer1"
     showgrid="false"
     inkscape:window-width="1920"
     inkscape:window-height="1158"
     inkscape:window-x="0"
     inkscape:window-y="42"
     inkscape:window-maximized="0"
     fit-margin-top="0"
     fit-margin-left="0"
     fit-margin-right="0"
     fit-margin-bottom="0"
     inkscape:lockguides="true"
     showguides="true" />
  <metadata
     id="metadata5">
    <rdf:RDF>
      <cc:Work
         rdf:about="">
        <dc:format>image/svg+xml</dc:format>
        <dc:type
           rdf:resource="http://purl.org/dc/dcmitype/StillImage" />
        <dc:title></dc:title>
      </cc:Work>
    </rdf:RDF>
  </metadata>
  <g
     inkscape:label="Layer 1"
     inkscape:groupmode="layer"
     id="layer1"
     transform="translate(-45.789755,-122.09544)">
    <g
       id="g1049">
      <path
         style="opacity:1;fill:#d1d1d1;fill-opacity:1;stroke:none;stroke-width:0.53223443;stroke-linecap:round;stroke-linejoin:miter;stroke-miterlimit:4;stroke-dasharray:none;stroke-dashoffset:0;stroke-opacity:1;filter:url(#filter1007)"
         d="m 65.32301,132.24492 c 0,5.18251 -4.201252,9.38376 -9.383759,9.38376 -2.591254,0 -9.375781,-8.7e-4 -9.375781,-8.7e-4 0,0 -0.008,-6.79164 -0.008,-9.38289 0,-5.18251 4.201252,-9.38376 9.38376,-9.38376 5.182507,0 9.383759,4.20125 9.383759,9.38376 z"
         id="path965"
         inkscape:connector-curvature="0"
         sodipodi:nodetypes="sscsss" />
      <path
         sodipodi:nodetypes="sscsss"
         inkscape:connector-curvature="0"
         id="circle8490"
         d="m 65.416554,132.15138 c 0,5.18251 -4.201252,9.38376 -9.383759,9.38376 -2.591254,0 -9.375781,-8.7e-4 -9.375781,-8.7e-4 0,0 -0.008,-6.79164 -0.008,-9.38289 0,-5.18251 4.201252,-9.38376 9.38376,-9.38376 5.182507,0 9.383759,4.20125 9.383759,9.38376 z"
         style="opacity:1;fill:#ffffff;fill-opacity:1;stroke:none;stroke-width:0.53223443;stroke-linecap:round;stroke-linejoin:miter;stroke-miterlimit:4;stroke-dasharray:none;stroke-dashoffset:0;stroke-opacity:1" />
      <path
         sodipodi:nodetypes="sscsss"
         inkscape:connector-curvature="0"
         id="path3944"
         d="m 63.899888,132.15138 c -10e-7,4.34487 -3.522219,7.86709 -7.867093,7.86709 -2.172437,0 -7.857463,-1e-5 -7.857463,-1e-5 0,0 -0.0096,-5.69464 -0.0096,-7.86708 -10e-7,-4.34487 3.522219,-7.86709 7.867093,-7.86709 4.344874,0 7.867092,3.52222 7.867093,7.86709 z"
         style="opacity:1;fill:url(#linearGradient1043);fill-opacity:1;stroke:none;stroke-width:0.44621113;stroke-linecap:round;stroke-linejoin:miter;stroke-miterlimit:4;stroke-dasharray:none;stroke-dashoffset:0;stroke-opacity:1" />
      <path
         inkscape:connector-curvature="0"
         id="circle8834"
         d="m 53.832729,128.76538 a 2.6775165,2.6775165 0 0 0 -2.675586,2.64009 h -0.0039 v 4.0811 h 1.460728 v -3.80172 h 0.002 c 0.0092,-0.74565 0.550898,-1.34455 1.216176,-1.34502 0.672226,-1e-5 1.216842,0.61122 1.216831,1.36476 -1.24e-4,0.0408 -0.0018,0.0817 -0.0052,0.12225 v 3.65971 h 0.148568 1.306239 0.15449 v -3.80171 h 0.002 c 0.0092,-0.74565 0.550899,-1.34454 1.216176,-1.34502 0.672227,-1e-5 1.216842,0.61123 1.216831,1.36476 -1.24e-4,0.0408 -0.0018,0.0817 -0.0052,0.12225 v 3.65971 h 1.454806 v -3.80367 a 2.6775165,2.6775165 0 0 0 0.01183,-0.23995 2.6775165,2.6775165 0 0 0 -2.677561,-2.67757 2.6775165,2.6775165 0 0 0 -2.017538,0.9243 2.6775165,2.6775165 0 0 0 -2.021482,-0.9243 z"
         style="opacity:1;fill:#ffffff;fill-opacity:1;stroke:none;stroke-width:0.12721319;stroke-linecap:round;stroke-linejoin:miter;stroke-miterlimit:4;stroke-dasharray:none;stroke-dashoffset:0;stroke-opacity:1" />
    </g>
  </g>
</svg>
