<?xml version="1.0" encoding="UTF-8" standalone="no"?>
<!-- Created with Inkscape (http://www.inkscape.org/) -->

<svg
   xmlns:dc="http://purl.org/dc/elements/1.1/"
   xmlns:cc="http://creativecommons.org/ns#"
   xmlns:rdf="http://www.w3.org/1999/02/22-rdf-syntax-ns#"
   xmlns:svg="http://www.w3.org/2000/svg"
   xmlns="http://www.w3.org/2000/svg"
   xmlns:xlink="http://www.w3.org/1999/xlink"
   xmlns:sodipodi="http://sodipodi.sourceforge.net/DTD/sodipodi-0.dtd"
   xmlns:inkscape="http://www.inkscape.org/namespaces/inkscape"
   width="20.298971mm"
   height="20.298948mm"
   viewBox="0 0 20.298971 20.298948"
   version="1.1"
   id="svg8"
   inkscape:version="0.92.2 5c3e80d, 2017-08-06"
   sodipodi:docname="2.svg">
  <defs
     id="defs2">
    <linearGradient
       inkscape:collect="always"
       id="linearGradient1078">
      <stop
         style="stop-color:#ea2323;stop-opacity:1"
         offset="0"
         id="stop1074" />
      <stop
         style="stop-color:#fa6868;stop-opacity:1"
         offset="1"
         id="stop1076" />
    </linearGradient>
    <filter
       inkscape:collect="always"
       style="color-interpolation-filters:sRGB"
       id="filter1007"
       x="-0.040799979"
       width="1.0816"
       y="-0.040800024"
       height="1.0816">
      <feGaussianBlur
         inkscape:collect="always"
         stdDeviation="0.31904801"
         id="feGaussianBlur1009" />
    </filter>
    <linearGradient
       inkscape:collect="always"
       xlink:href="#linearGradient1078"
       id="linearGradient1080"
       x1="52.390511"
       y1="136.71544"
       x2="59.614235"
       y2="127.247"
       gradientUnits="userSpaceOnUse" />
  </defs>
  <sodipodi:namedview
     id="base"
     pagecolor="#ffffff"
     bordercolor="#666666"
     borderopacity="1.0"
     inkscape:pageopacity="0.0"
     inkscape:pageshadow="2"
     inkscape:zoom="2.8284272"
     inkscape:cx="53.435754"
     inkscape:cy="-26.288284"
     inkscape:document-units="mm"
     inkscape:current-layer="layer1"
     showgrid="false"
     inkscape:window-width="1920"
     inkscape:window-height="1158"
     inkscape:window-x="0"
     inkscape:window-y="42"
     inkscape:window-maximized="0"
     fit-margin-top="0"
     fit-margin-left="0"
     fit-margin-right="0"
     fit-margin-bottom="0"
     inkscape:lockguides="true"
     showguides="true" />
  <metadata
     id="metadata5">
    <rdf:RDF>
      <cc:Work
         rdf:about="">
        <dc:format>image/svg+xml</dc:format>
        <dc:type
           rdf:resource="http://purl.org/dc/dcmitype/StillImage" />
        <dc:title></dc:title>
      </cc:Work>
    </rdf:RDF>
  </metadata>
  <g
     inkscape:label="Layer 1"
     inkscape:groupmode="layer"
     id="layer1"
     transform="translate(-45.789755,-122.09544)">
    <path
       sodipodi:nodetypes="sscsss"
       inkscape:connector-curvature="0"
       id="path965"
       d="m 65.32301,132.24492 c 0,5.18251 -4.201252,9.38376 -9.383759,9.38376 -2.591254,0 -9.375781,-8.7e-4 -9.375781,-8.7e-4 0,0 -0.008,-6.79164 -0.008,-9.38289 0,-5.18251 4.201252,-9.38376 9.38376,-9.38376 5.182507,0 9.383759,4.20125 9.383759,9.38376 z"
       style="opacity:1;fill:#d1d1d1;fill-opacity:1;stroke:none;stroke-width:0.53223443;stroke-linecap:round;stroke-linejoin:miter;stroke-miterlimit:4;stroke-dasharray:none;stroke-dashoffset:0;stroke-opacity:1;filter:url(#filter1007)" />
    <path
       style="opacity:1;fill:#ffffff;fill-opacity:1;stroke:none;stroke-width:0.53223443;stroke-linecap:round;stroke-linejoin:miter;stroke-miterlimit:4;stroke-dasharray:none;stroke-dashoffset:0;stroke-opacity:1"
       d="m 65.416554,132.15138 c 0,5.18251 -4.201252,9.38376 -9.383759,9.38376 -2.591254,0 -9.375781,-8.7e-4 -9.375781,-8.7e-4 0,0 -0.008,-6.79164 -0.008,-9.38289 0,-5.18251 4.201252,-9.38376 9.38376,-9.38376 5.182507,0 9.383759,4.20125 9.383759,9.38376 z"
       id="circle8490"
       inkscape:connector-curvature="0"
       sodipodi:nodetypes="sscsss" />
    <path
       style="opacity:1;fill:url(#linearGradient1080);fill-opacity:1;stroke:none;stroke-width:0.44621113;stroke-linecap:round;stroke-linejoin:miter;stroke-miterlimit:4;stroke-dasharray:none;stroke-dashoffset:0;stroke-opacity:1"
       d="m 63.899888,132.15138 c -10e-7,4.34487 -3.522219,7.86709 -7.867093,7.86709 -2.172437,0 -7.857463,-1e-5 -7.857463,-1e-5 0,0 -0.0096,-5.69464 -0.0096,-7.86708 -10e-7,-4.34487 3.522219,-7.86709 7.867093,-7.86709 4.344874,0 7.867092,3.52222 7.867093,7.86709 z"
       id="path3944"
       inkscape:connector-curvature="0"
       sodipodi:nodetypes="sscsss" />
    <g
       aria-label="2"
       style="font-style:normal;font-variant:normal;font-weight:normal;font-stretch:normal;font-size:10.58333302px;line-height:6.61458302px;font-family:FontAwesome;-inkscape-font-specification:FontAwesome;text-align:center;letter-spacing:0px;word-spacing:0px;text-anchor:middle;fill:#ffffff;fill-opacity:1;stroke:none;stroke-width:0.26458332px;stroke-linecap:butt;stroke-linejoin:miter;stroke-opacity:1"
       id="text1390">
      <path
         d="m 55.633066,127.73808 c -1.2827,0 -2.2606,0.5842 -2.9464,1.4859 l 1.1938,0.9398 c 0.4953,-0.6096 0.9271,-0.889 1.5494,-0.889 0.6731,0 1.1049,0.4191 1.1049,1.1176 0,1.0668 -0.6731,1.8415 -3.556,4.6863 v 1.4224 h 5.588 l 0.2032,-1.5367 h -3.5179 c 2.6797,-2.4384 3.3401,-3.4417 3.3401,-4.7752 0,-1.3335 -1.0414,-2.4511 -2.9591,-2.4511 z"
         style="font-style:normal;font-variant:normal;font-weight:bold;font-stretch:normal;font-size:12.69999981px;font-family:'Fira Sans';-inkscape-font-specification:'Fira Sans Bold';text-align:center;text-anchor:middle;fill:#ffffff;stroke-width:0.26458332px"
         id="path5141" />
    </g>
  </g>
</svg>
