<?xml version="1.0" encoding="UTF-8" standalone="no"?>
<!-- Created with Inkscape (http://www.inkscape.org/) -->

<svg
   xmlns:dc="http://purl.org/dc/elements/1.1/"
   xmlns:cc="http://creativecommons.org/ns#"
   xmlns:rdf="http://www.w3.org/1999/02/22-rdf-syntax-ns#"
   xmlns:svg="http://www.w3.org/2000/svg"
   xmlns="http://www.w3.org/2000/svg"
   xmlns:xlink="http://www.w3.org/1999/xlink"
   xmlns:sodipodi="http://sodipodi.sourceforge.net/DTD/sodipodi-0.dtd"
   xmlns:inkscape="http://www.inkscape.org/namespaces/inkscape"
   width="20.298971mm"
   height="20.298948mm"
   viewBox="0 0 20.298971 20.298948"
   version="1.1"
   id="svg8"
   inkscape:version="0.92.2 5c3e80d, 2017-08-06"
   sodipodi:docname="8.svg">
  <defs
     id="defs2">
    <linearGradient
       inkscape:collect="always"
       id="linearGradient1078">
      <stop
         style="stop-color:#ea2323;stop-opacity:1"
         offset="0"
         id="stop1074" />
      <stop
         style="stop-color:#fa6868;stop-opacity:1"
         offset="1"
         id="stop1076" />
    </linearGradient>
    <filter
       inkscape:collect="always"
       style="color-interpolation-filters:sRGB"
       id="filter1007"
       x="-0.040799979"
       width="1.0816"
       y="-0.040800024"
       height="1.0816">
      <feGaussianBlur
         inkscape:collect="always"
         stdDeviation="0.31904801"
         id="feGaussianBlur1009" />
    </filter>
    <linearGradient
       inkscape:collect="always"
       xlink:href="#linearGradient1078"
       id="linearGradient1080"
       x1="52.390511"
       y1="136.71544"
       x2="59.614235"
       y2="127.247"
       gradientUnits="userSpaceOnUse" />
  </defs>
  <sodipodi:namedview
     id="base"
     pagecolor="#ffffff"
     bordercolor="#666666"
     borderopacity="1.0"
     inkscape:pageopacity="0.0"
     inkscape:pageshadow="2"
     inkscape:zoom="2.8284272"
     inkscape:cx="53.435754"
     inkscape:cy="-26.288284"
     inkscape:document-units="mm"
     inkscape:current-layer="layer1"
     showgrid="false"
     inkscape:window-width="1920"
     inkscape:window-height="1158"
     inkscape:window-x="0"
     inkscape:window-y="42"
     inkscape:window-maximized="0"
     fit-margin-top="0"
     fit-margin-left="0"
     fit-margin-right="0"
     fit-margin-bottom="0"
     inkscape:lockguides="true"
     showguides="true" />
  <metadata
     id="metadata5">
    <rdf:RDF>
      <cc:Work
         rdf:about="">
        <dc:format>image/svg+xml</dc:format>
        <dc:type
           rdf:resource="http://purl.org/dc/dcmitype/StillImage" />
        <dc:title></dc:title>
      </cc:Work>
    </rdf:RDF>
  </metadata>
  <g
     inkscape:label="Layer 1"
     inkscape:groupmode="layer"
     id="layer1"
     transform="translate(-45.789755,-122.09544)">
    <path
       sodipodi:nodetypes="sscsss"
       inkscape:connector-curvature="0"
       id="path965"
       d="m 65.32301,132.24492 c 0,5.18251 -4.201252,9.38376 -9.383759,9.38376 -2.591254,0 -9.375781,-8.7e-4 -9.375781,-8.7e-4 0,0 -0.008,-6.79164 -0.008,-9.38289 0,-5.18251 4.201252,-9.38376 9.38376,-9.38376 5.182507,0 9.383759,4.20125 9.383759,9.38376 z"
       style="opacity:1;fill:#d1d1d1;fill-opacity:1;stroke:none;stroke-width:0.53223443;stroke-linecap:round;stroke-linejoin:miter;stroke-miterlimit:4;stroke-dasharray:none;stroke-dashoffset:0;stroke-opacity:1;filter:url(#filter1007)" />
    <path
       style="opacity:1;fill:#ffffff;fill-opacity:1;stroke:none;stroke-width:0.53223443;stroke-linecap:round;stroke-linejoin:miter;stroke-miterlimit:4;stroke-dasharray:none;stroke-dashoffset:0;stroke-opacity:1"
       d="m 65.416554,132.15138 c 0,5.18251 -4.201252,9.38376 -9.383759,9.38376 -2.591254,0 -9.375781,-8.7e-4 -9.375781,-8.7e-4 0,0 -0.008,-6.79164 -0.008,-9.38289 0,-5.18251 4.201252,-9.38376 9.38376,-9.38376 5.182507,0 9.383759,4.20125 9.383759,9.38376 z"
       id="circle8490"
       inkscape:connector-curvature="0"
       sodipodi:nodetypes="sscsss" />
    <path
       style="opacity:1;fill:url(#linearGradient1080);fill-opacity:1;stroke:none;stroke-width:0.44621113;stroke-linecap:round;stroke-linejoin:miter;stroke-miterlimit:4;stroke-dasharray:none;stroke-dashoffset:0;stroke-opacity:1"
       d="m 63.899888,132.15138 c -10e-7,4.34487 -3.522219,7.86709 -7.867093,7.86709 -2.172437,0 -7.857463,-1e-5 -7.857463,-1e-5 0,0 -0.0096,-5.69464 -0.0096,-7.86708 -10e-7,-4.34487 3.522219,-7.86709 7.867093,-7.86709 4.344874,0 7.867092,3.52222 7.867093,7.86709 z"
       id="path3944"
       inkscape:connector-curvature="0"
       sodipodi:nodetypes="sscsss" />
    <g
       aria-label="8"
       style="font-style:normal;font-variant:normal;font-weight:normal;font-stretch:normal;font-size:10.58333302px;line-height:6.61458302px;font-family:FontAwesome;-inkscape-font-specification:FontAwesome;text-align:center;letter-spacing:0px;word-spacing:0px;text-anchor:middle;fill:#ffffff;fill-opacity:1;stroke:none;stroke-width:0.26458332px;stroke-linecap:butt;stroke-linejoin:miter;stroke-opacity:1"
       id="text1390">
      <path
         d="m 57.509491,131.89098 c 0.9525,-0.508 1.3716,-1.2065 1.3716,-1.9431 0,-1.397 -1.27,-2.2098 -2.9718,-2.2098 -1.7272,0 -2.9845,0.9271 -2.9845,2.3114 0,0.7874 0.3556,1.4986 1.2573,2.032 -0.9906,0.4318 -1.6002,1.1176 -1.6002,2.1336 0,1.3716 1.2065,2.5019 3.2766,2.5019 2.1336,0 3.3528,-1.1557 3.3528,-2.54 0,-0.9779 -0.5334,-1.7272 -1.7018,-2.286 z m -1.5875,-2.794 c 0.6731,0 1.016,0.3937 1.016,0.9525 0,0.5207 -0.1651,0.9271 -0.7493,1.3335 l -0.2794,-0.1016 c -0.6985,-0.2921 -1.0414,-0.6096 -1.0414,-1.2065 0,-0.6477 0.4191,-0.9779 1.0541,-0.9779 z m 0,6.1849 c -0.8128,0 -1.3208,-0.4572 -1.3208,-1.1684 0,-0.6477 0.2794,-1.1557 0.8509,-1.4859 l 0.4318,0.1524 c 0.9652,0.3556 1.3208,0.6858 1.3208,1.3843 0,0.6223 -0.4318,1.1176 -1.2827,1.1176 z"
         style="font-style:normal;font-variant:normal;font-weight:bold;font-stretch:normal;font-size:12.69999981px;font-family:'Fira Sans';-inkscape-font-specification:'Fira Sans Bold';text-align:center;text-anchor:middle;fill:#ffffff;stroke-width:0.26458332px"
         id="path5254" />
    </g>
  </g>
</svg>
